<?xml version="1.0" standalone="no"?>
<!DOCTYPE svg PUBLIC "-//W3C//DTD SVG 20010904//EN"
 "http://www.w3.org/TR/2001/REC-SVG-20010904/DTD/svg10.dtd">
<svg version="1.0" xmlns="http://www.w3.org/2000/svg"
 width="512.000000pt" height="512.000000pt" viewBox="0 0 512.000000 512.000000"
 preserveAspectRatio="xMidYMid meet">

<g transform="translate(0.000000,512.000000) scale(0.100000,-0.100000)"
fill="#000000" stroke="none">
<path d="M576 5092 c10 -16 158 -231 329 -476 l310 -445 553 -1 552 0 0 -1337
0 -1338 24 -50 c55 -117 181 -171 310 -133 55 16 138 99 154 154 9 32 12 357
12 1373 l0 1331 554 0 554 0 326 469 c179 258 326 472 326 476 0 11 -1551 -4
-1635 -16 -175 -24 -310 -148 -346 -316 -8 -40 -15 -53 -29 -53 -13 0 -20 13
-29 58 -32 160 -169 285 -341 311 -36 5 -420 13 -854 17 l-790 7 20 -31z"/>
<path d="M470 3799 c0 -1429 -1 -1390 61 -1637 17 -68 44 -161 61 -205 84
-218 351 -677 585 -1004 49 -68 126 -176 172 -240 105 -148 285 -328 403 -406
167 -111 347 -187 541 -229 146 -31 418 -31 564 0 194 42 374 118 541 229 118
78 298 258 403 406 46 64 123 172 172 240 180 251 396 606 513 844 93 188 158
412 184 633 8 66 10 482 8 1381 l-3 1285 -338 -483 -338 -484 7 -1322 c5 -967
4 -1347 -5 -1414 -40 -326 -181 -613 -414 -842 -357 -353 -855 -494 -1342
-381 -514 119 -931 527 -1061 1038 -47 184 -47 196 -40 1599 l7 1323 -337 482
c-185 266 -339 485 -341 487 -1 2 -3 -583 -3 -1300z"/>
</g>
</svg>
